<mxfile host="app.diagrams.net" agent="Mozilla/5.0 (Windows NT 10.0; Win64; x64) AppleWebKit/537.36 (KHTML, like Gecko) Chrome/131.0.0.0 Safari/537.36" version="26.0.2">
  <diagram name="Page-1" id="2YBvvXClWsGukQMizWep">
    <mxGraphModel dx="1050" dy="603" grid="0" gridSize="10" guides="1" tooltips="1" connect="1" arrows="1" fold="1" page="1" pageScale="1" pageWidth="850" pageHeight="1100" math="0" shadow="0">
      <root>
        <mxCell id="0" />
        <mxCell id="1" parent="0" />
        <mxCell id="kb8mqb-I2BFPK8dXKE93-86" value="" style="rounded=0;whiteSpace=wrap;html=1;" vertex="1" parent="1">
          <mxGeometry x="18" y="553" width="820" height="92" as="geometry" />
        </mxCell>
        <mxCell id="kb8mqb-I2BFPK8dXKE93-69" value="" style="endArrow=none;dashed=1;html=1;dashPattern=1 3;strokeWidth=2;rounded=0;entryX=1;entryY=0.5;entryDx=0;entryDy=0;exitX=0;exitY=0.5;exitDx=0;exitDy=0;" edge="1" parent="1" source="kb8mqb-I2BFPK8dXKE93-66" target="kb8mqb-I2BFPK8dXKE93-66">
          <mxGeometry width="50" height="50" relative="1" as="geometry">
            <mxPoint x="22" y="390" as="sourcePoint" />
            <mxPoint x="72" y="340" as="targetPoint" />
          </mxGeometry>
        </mxCell>
        <mxCell id="kb8mqb-I2BFPK8dXKE93-50" value="" style="endArrow=none;dashed=1;html=1;dashPattern=1 3;strokeWidth=2;rounded=0;" edge="1" parent="1">
          <mxGeometry width="50" height="50" relative="1" as="geometry">
            <mxPoint x="437" y="1013" as="sourcePoint" />
            <mxPoint x="436.5" y="490" as="targetPoint" />
          </mxGeometry>
        </mxCell>
        <mxCell id="kb8mqb-I2BFPK8dXKE93-66" value="" style="rounded=0;whiteSpace=wrap;html=1;" vertex="1" parent="1">
          <mxGeometry x="18" y="296" width="820" height="162" as="geometry" />
        </mxCell>
        <mxCell id="kb8mqb-I2BFPK8dXKE93-47" value="" style="endArrow=none;dashed=1;html=1;dashPattern=1 3;strokeWidth=2;rounded=0;" edge="1" parent="1">
          <mxGeometry width="50" height="50" relative="1" as="geometry">
            <mxPoint x="292" y="1018" as="sourcePoint" />
            <mxPoint x="291.5" y="491" as="targetPoint" />
          </mxGeometry>
        </mxCell>
        <mxCell id="kb8mqb-I2BFPK8dXKE93-34" value="User" style="shape=umlActor;verticalLabelPosition=bottom;verticalAlign=top;html=1;" vertex="1" parent="1">
          <mxGeometry x="128" y="31" width="30" height="60" as="geometry" />
        </mxCell>
        <mxCell id="kb8mqb-I2BFPK8dXKE93-35" value="" style="endArrow=none;dashed=1;html=1;dashPattern=1 3;strokeWidth=2;rounded=0;" edge="1" parent="1" source="kb8mqb-I2BFPK8dXKE93-37">
          <mxGeometry width="50" height="50" relative="1" as="geometry">
            <mxPoint x="142" y="523.5999755859375" as="sourcePoint" />
            <mxPoint x="145" y="112" as="targetPoint" />
          </mxGeometry>
        </mxCell>
        <mxCell id="kb8mqb-I2BFPK8dXKE93-36" value="" style="endArrow=none;dashed=1;html=1;dashPattern=1 3;strokeWidth=2;rounded=0;" edge="1" parent="1" target="kb8mqb-I2BFPK8dXKE93-37">
          <mxGeometry width="50" height="50" relative="1" as="geometry">
            <mxPoint x="142" y="1025" as="sourcePoint" />
            <mxPoint x="145" y="112" as="targetPoint" />
          </mxGeometry>
        </mxCell>
        <mxCell id="kb8mqb-I2BFPK8dXKE93-38" value="Welcome Page" style="html=1;whiteSpace=wrap;" vertex="1" parent="1">
          <mxGeometry x="235" y="41" width="110" height="50" as="geometry" />
        </mxCell>
        <mxCell id="kb8mqb-I2BFPK8dXKE93-39" value="Registration Form" style="html=1;whiteSpace=wrap;" vertex="1" parent="1">
          <mxGeometry x="386" y="41" width="110" height="50" as="geometry" />
        </mxCell>
        <mxCell id="kb8mqb-I2BFPK8dXKE93-40" value="Authentication Server" style="html=1;whiteSpace=wrap;" vertex="1" parent="1">
          <mxGeometry x="537" y="41" width="110" height="50" as="geometry" />
        </mxCell>
        <mxCell id="kb8mqb-I2BFPK8dXKE93-41" value="User Account" style="html=1;whiteSpace=wrap;" vertex="1" parent="1">
          <mxGeometry x="685" y="41" width="110" height="50" as="geometry" />
        </mxCell>
        <mxCell id="kb8mqb-I2BFPK8dXKE93-45" value="" style="endArrow=none;dashed=1;html=1;dashPattern=1 3;strokeWidth=2;rounded=0;" edge="1" source="kb8mqb-I2BFPK8dXKE93-46" parent="1">
          <mxGeometry width="50" height="50" relative="1" as="geometry">
            <mxPoint x="291" y="513.5999755859375" as="sourcePoint" />
            <mxPoint x="294" y="102" as="targetPoint" />
          </mxGeometry>
        </mxCell>
        <mxCell id="kb8mqb-I2BFPK8dXKE93-48" value="" style="endArrow=none;dashed=1;html=1;dashPattern=1 3;strokeWidth=2;rounded=0;" edge="1" source="kb8mqb-I2BFPK8dXKE93-49" parent="1">
          <mxGeometry width="50" height="50" relative="1" as="geometry">
            <mxPoint x="436" y="509.5999755859375" as="sourcePoint" />
            <mxPoint x="439" y="98" as="targetPoint" />
          </mxGeometry>
        </mxCell>
        <mxCell id="kb8mqb-I2BFPK8dXKE93-51" value="" style="endArrow=none;dashed=1;html=1;dashPattern=1 3;strokeWidth=2;rounded=0;" edge="1" source="kb8mqb-I2BFPK8dXKE93-52" parent="1">
          <mxGeometry width="50" height="50" relative="1" as="geometry">
            <mxPoint x="598" y="509.5999755859375" as="sourcePoint" />
            <mxPoint x="601" y="98" as="targetPoint" />
          </mxGeometry>
        </mxCell>
        <mxCell id="kb8mqb-I2BFPK8dXKE93-53" value="" style="endArrow=none;dashed=1;html=1;dashPattern=1 3;strokeWidth=2;rounded=0;" edge="1" target="kb8mqb-I2BFPK8dXKE93-52" parent="1">
          <mxGeometry width="50" height="50" relative="1" as="geometry">
            <mxPoint x="599" y="1007" as="sourcePoint" />
            <mxPoint x="601" y="98" as="targetPoint" />
          </mxGeometry>
        </mxCell>
        <mxCell id="kb8mqb-I2BFPK8dXKE93-54" value="" style="endArrow=none;dashed=1;html=1;dashPattern=1 3;strokeWidth=2;rounded=0;" edge="1" source="kb8mqb-I2BFPK8dXKE93-55" parent="1">
          <mxGeometry width="50" height="50" relative="1" as="geometry">
            <mxPoint x="743" y="509.5999755859375" as="sourcePoint" />
            <mxPoint x="746" y="98" as="targetPoint" />
          </mxGeometry>
        </mxCell>
        <mxCell id="kb8mqb-I2BFPK8dXKE93-56" value="" style="endArrow=none;dashed=1;html=1;dashPattern=1 3;strokeWidth=2;rounded=0;" edge="1" parent="1">
          <mxGeometry width="50" height="50" relative="1" as="geometry">
            <mxPoint x="743.5" y="1006.7999267578125" as="sourcePoint" />
            <mxPoint x="743.5" y="752" as="targetPoint" />
          </mxGeometry>
        </mxCell>
        <mxCell id="kb8mqb-I2BFPK8dXKE93-57" value="" style="endArrow=open;endFill=1;endSize=12;html=1;rounded=0;" edge="1" parent="1">
          <mxGeometry width="160" relative="1" as="geometry">
            <mxPoint x="148" y="173" as="sourcePoint" />
            <mxPoint x="286" y="173" as="targetPoint" />
          </mxGeometry>
        </mxCell>
        <mxCell id="kb8mqb-I2BFPK8dXKE93-58" value="Register" style="text;html=1;align=center;verticalAlign=middle;resizable=0;points=[];autosize=1;strokeColor=none;fillColor=none;" vertex="1" parent="1">
          <mxGeometry x="186" y="149" width="63" height="26" as="geometry" />
        </mxCell>
        <mxCell id="kb8mqb-I2BFPK8dXKE93-59" value="" style="endArrow=open;endFill=1;endSize=12;html=1;rounded=0;" edge="1" parent="1" target="kb8mqb-I2BFPK8dXKE93-49">
          <mxGeometry width="160" relative="1" as="geometry">
            <mxPoint x="296" y="203" as="sourcePoint" />
            <mxPoint x="456" y="203" as="targetPoint" />
          </mxGeometry>
        </mxCell>
        <mxCell id="kb8mqb-I2BFPK8dXKE93-60" value="Open Registration Form" style="text;html=1;align=center;verticalAlign=middle;resizable=0;points=[];autosize=1;strokeColor=none;fillColor=none;" vertex="1" parent="1">
          <mxGeometry x="289" y="178" width="146" height="26" as="geometry" />
        </mxCell>
        <mxCell id="kb8mqb-I2BFPK8dXKE93-61" value="" style="endArrow=open;endFill=1;endSize=12;html=1;rounded=0;" edge="1" parent="1">
          <mxGeometry width="160" relative="1" as="geometry">
            <mxPoint x="443" y="223" as="sourcePoint" />
            <mxPoint x="592" y="221" as="targetPoint" />
          </mxGeometry>
        </mxCell>
        <mxCell id="kb8mqb-I2BFPK8dXKE93-62" value="Check Username" style="text;html=1;align=center;verticalAlign=middle;resizable=0;points=[];autosize=1;strokeColor=none;fillColor=none;" vertex="1" parent="1">
          <mxGeometry x="460" y="200" width="111" height="26" as="geometry" />
        </mxCell>
        <mxCell id="kb8mqb-I2BFPK8dXKE93-63" value="" style="endArrow=open;endFill=1;endSize=12;html=1;rounded=0;" edge="1" parent="1">
          <mxGeometry width="160" relative="1" as="geometry">
            <mxPoint x="149" y="273" as="sourcePoint" />
            <mxPoint x="286" y="273" as="targetPoint" />
          </mxGeometry>
        </mxCell>
        <mxCell id="kb8mqb-I2BFPK8dXKE93-64" value="Enter Username" style="text;html=1;align=center;verticalAlign=middle;resizable=0;points=[];autosize=1;strokeColor=none;fillColor=none;" vertex="1" parent="1">
          <mxGeometry x="165" y="252" width="105" height="26" as="geometry" />
        </mxCell>
        <mxCell id="kb8mqb-I2BFPK8dXKE93-68" value="Alternate" style="rounded=0;whiteSpace=wrap;html=1;" vertex="1" parent="1">
          <mxGeometry x="18" y="296" width="97" height="26" as="geometry" />
        </mxCell>
        <mxCell id="kb8mqb-I2BFPK8dXKE93-70" value="" style="endArrow=none;dashed=1;html=1;dashPattern=1 3;strokeWidth=2;rounded=0;entryX=1;entryY=0.5;entryDx=0;entryDy=0;" edge="1" parent="1" target="kb8mqb-I2BFPK8dXKE93-66">
          <mxGeometry width="50" height="50" relative="1" as="geometry">
            <mxPoint x="23" y="375" as="sourcePoint" />
            <mxPoint x="73" y="325" as="targetPoint" />
          </mxGeometry>
        </mxCell>
        <mxCell id="kb8mqb-I2BFPK8dXKE93-49" value="" style="html=1;points=[[0,0,0,0,5],[0,1,0,0,-5],[1,0,0,0,5],[1,1,0,0,-5]];perimeter=orthogonalPerimeter;outlineConnect=0;targetShapes=umlLifeline;portConstraint=eastwest;newEdgeStyle={&quot;curved&quot;:0,&quot;rounded&quot;:0};fillColor=#dae8fc;strokeColor=#6c8ebf;" vertex="1" parent="1">
          <mxGeometry x="432" y="137" width="10" height="832" as="geometry" />
        </mxCell>
        <mxCell id="kb8mqb-I2BFPK8dXKE93-52" value="" style="html=1;points=[[0,0,0,0,5],[0,1,0,0,-5],[1,0,0,0,5],[1,1,0,0,-5]];perimeter=orthogonalPerimeter;outlineConnect=0;targetShapes=umlLifeline;portConstraint=eastwest;newEdgeStyle={&quot;curved&quot;:0,&quot;rounded&quot;:0};fillColor=#dae8fc;strokeColor=#6c8ebf;" vertex="1" parent="1">
          <mxGeometry x="594" y="137" width="10" height="829" as="geometry" />
        </mxCell>
        <mxCell id="kb8mqb-I2BFPK8dXKE93-55" value="" style="html=1;points=[[0,0,0,0,5],[0,1,0,0,-5],[1,0,0,0,5],[1,1,0,0,-5]];perimeter=orthogonalPerimeter;outlineConnect=0;targetShapes=umlLifeline;portConstraint=eastwest;newEdgeStyle={&quot;curved&quot;:0,&quot;rounded&quot;:0};fillColor=#dae8fc;strokeColor=#6c8ebf;" vertex="1" parent="1">
          <mxGeometry x="739" y="137" width="10" height="836" as="geometry" />
        </mxCell>
        <mxCell id="kb8mqb-I2BFPK8dXKE93-46" value="" style="html=1;points=[[0,0,0,0,5],[0,1,0,0,-5],[1,0,0,0,5],[1,1,0,0,-5]];perimeter=orthogonalPerimeter;outlineConnect=0;targetShapes=umlLifeline;portConstraint=eastwest;newEdgeStyle={&quot;curved&quot;:0,&quot;rounded&quot;:0};fillColor=#dae8fc;strokeColor=#6c8ebf;" vertex="1" parent="1">
          <mxGeometry x="287" y="141" width="10" height="828" as="geometry" />
        </mxCell>
        <mxCell id="kb8mqb-I2BFPK8dXKE93-37" value="" style="html=1;points=[[0,0,0,0,5],[0,1,0,0,-5],[1,0,0,0,5],[1,1,0,0,-5]];perimeter=orthogonalPerimeter;outlineConnect=0;targetShapes=umlLifeline;portConstraint=eastwest;newEdgeStyle={&quot;curved&quot;:0,&quot;rounded&quot;:0};fillColor=#dae8fc;strokeColor=#6c8ebf;" vertex="1" parent="1">
          <mxGeometry x="138" y="151" width="10" height="823" as="geometry" />
        </mxCell>
        <mxCell id="kb8mqb-I2BFPK8dXKE93-71" value="" style="endArrow=block;dashed=1;endFill=0;endSize=12;html=1;rounded=0;" edge="1" parent="1" source="kb8mqb-I2BFPK8dXKE93-52" target="kb8mqb-I2BFPK8dXKE93-49">
          <mxGeometry width="160" relative="1" as="geometry">
            <mxPoint x="540" y="335" as="sourcePoint" />
            <mxPoint x="703" y="335" as="targetPoint" />
            <Array as="points">
              <mxPoint x="528" y="338" />
            </Array>
          </mxGeometry>
        </mxCell>
        <mxCell id="kb8mqb-I2BFPK8dXKE93-72" value="Username Does not Exist" style="text;html=1;align=center;verticalAlign=middle;resizable=0;points=[];autosize=1;strokeColor=none;fillColor=none;" vertex="1" parent="1">
          <mxGeometry x="442" y="311" width="154" height="26" as="geometry" />
        </mxCell>
        <mxCell id="kb8mqb-I2BFPK8dXKE93-73" value="" style="endArrow=block;dashed=1;endFill=0;endSize=12;html=1;rounded=0;" edge="1" parent="1">
          <mxGeometry width="160" relative="1" as="geometry">
            <mxPoint x="594" y="409" as="sourcePoint" />
            <mxPoint x="442" y="409" as="targetPoint" />
            <Array as="points">
              <mxPoint x="528" y="409" />
            </Array>
          </mxGeometry>
        </mxCell>
        <mxCell id="kb8mqb-I2BFPK8dXKE93-74" value="Username Exist" style="text;html=1;align=center;verticalAlign=middle;resizable=0;points=[];autosize=1;strokeColor=none;fillColor=none;" vertex="1" parent="1">
          <mxGeometry x="468" y="411" width="103" height="26" as="geometry" />
        </mxCell>
        <mxCell id="kb8mqb-I2BFPK8dXKE93-75" value="" style="endArrow=block;dashed=1;endFill=0;endSize=12;html=1;rounded=0;" edge="1" parent="1" target="kb8mqb-I2BFPK8dXKE93-37">
          <mxGeometry width="160" relative="1" as="geometry">
            <mxPoint x="432" y="423.5" as="sourcePoint" />
            <mxPoint x="280" y="423.5" as="targetPoint" />
            <Array as="points">
              <mxPoint x="366" y="423.5" />
            </Array>
          </mxGeometry>
        </mxCell>
        <mxCell id="kb8mqb-I2BFPK8dXKE93-76" value="Username Detected" style="text;html=1;align=center;verticalAlign=middle;resizable=0;points=[];autosize=1;strokeColor=none;fillColor=none;" vertex="1" parent="1">
          <mxGeometry x="291" y="399" width="125" height="26" as="geometry" />
        </mxCell>
        <mxCell id="kb8mqb-I2BFPK8dXKE93-77" value="" style="endArrow=open;endFill=1;endSize=12;html=1;rounded=0;" edge="1" parent="1" target="kb8mqb-I2BFPK8dXKE93-49">
          <mxGeometry width="160" relative="1" as="geometry">
            <mxPoint x="151" y="500" as="sourcePoint" />
            <mxPoint x="430" y="497" as="targetPoint" />
          </mxGeometry>
        </mxCell>
        <mxCell id="kb8mqb-I2BFPK8dXKE93-78" value="" style="endArrow=open;endFill=1;endSize=12;html=1;rounded=0;" edge="1" parent="1">
          <mxGeometry width="160" relative="1" as="geometry">
            <mxPoint x="148" y="537" as="sourcePoint" />
            <mxPoint x="431" y="534" as="targetPoint" />
          </mxGeometry>
        </mxCell>
        <mxCell id="kb8mqb-I2BFPK8dXKE93-79" value="Enter Password" style="text;html=1;align=center;verticalAlign=middle;resizable=0;points=[];autosize=1;strokeColor=none;fillColor=none;" vertex="1" parent="1">
          <mxGeometry x="184" y="478" width="103" height="26" as="geometry" />
        </mxCell>
        <mxCell id="kb8mqb-I2BFPK8dXKE93-80" value="Password Confirmation" style="text;html=1;align=center;verticalAlign=middle;resizable=0;points=[];autosize=1;strokeColor=none;fillColor=none;" vertex="1" parent="1">
          <mxGeometry x="228" y="511" width="142" height="26" as="geometry" />
        </mxCell>
        <mxCell id="kb8mqb-I2BFPK8dXKE93-81" value="" style="endArrow=open;endFill=1;endSize=12;html=1;rounded=0;" edge="1" parent="1">
          <mxGeometry width="160" relative="1" as="geometry">
            <mxPoint x="593.5" y="578" as="sourcePoint" />
            <mxPoint x="444.5" y="578" as="targetPoint" />
          </mxGeometry>
        </mxCell>
        <mxCell id="kb8mqb-I2BFPK8dXKE93-82" value="Password Verified" style="text;html=1;align=center;verticalAlign=middle;resizable=0;points=[];autosize=1;strokeColor=none;fillColor=none;" vertex="1" parent="1">
          <mxGeometry x="466" y="557" width="114" height="26" as="geometry" />
        </mxCell>
        <mxCell id="kb8mqb-I2BFPK8dXKE93-85" value="Password Do Not Match" style="text;html=1;align=center;verticalAlign=middle;resizable=0;points=[];autosize=1;strokeColor=none;fillColor=none;" vertex="1" parent="1">
          <mxGeometry x="223" y="603" width="147" height="26" as="geometry" />
        </mxCell>
        <mxCell id="kb8mqb-I2BFPK8dXKE93-87" value="" style="endArrow=block;dashed=1;endFill=0;endSize=12;html=1;rounded=0;" edge="1" parent="1" target="kb8mqb-I2BFPK8dXKE93-37">
          <mxGeometry width="160" relative="1" as="geometry">
            <mxPoint x="429" y="624" as="sourcePoint" />
            <mxPoint x="145" y="624.5" as="targetPoint" />
            <Array as="points">
              <mxPoint x="363" y="624" />
            </Array>
          </mxGeometry>
        </mxCell>
        <mxCell id="kb8mqb-I2BFPK8dXKE93-88" value="" style="endArrow=none;dashed=1;html=1;dashPattern=1 3;strokeWidth=2;rounded=0;entryX=1;entryY=0.5;entryDx=0;entryDy=0;" edge="1" parent="1">
          <mxGeometry width="50" height="50" relative="1" as="geometry">
            <mxPoint x="20.5" y="601" as="sourcePoint" />
            <mxPoint x="835.5" y="603" as="targetPoint" />
          </mxGeometry>
        </mxCell>
        <mxCell id="kb8mqb-I2BFPK8dXKE93-89" value="Alternate" style="rounded=0;whiteSpace=wrap;html=1;" vertex="1" parent="1">
          <mxGeometry x="18" y="553" width="97" height="26" as="geometry" />
        </mxCell>
        <mxCell id="kb8mqb-I2BFPK8dXKE93-90" value="" style="endArrow=open;endFill=1;endSize=12;html=1;rounded=0;" edge="1" parent="1">
          <mxGeometry width="160" relative="1" as="geometry">
            <mxPoint x="147" y="719" as="sourcePoint" />
            <mxPoint x="428" y="719" as="targetPoint" />
          </mxGeometry>
        </mxCell>
        <mxCell id="kb8mqb-I2BFPK8dXKE93-91" value="Confirm Account" style="text;html=1;align=center;verticalAlign=middle;resizable=0;points=[];autosize=1;strokeColor=none;fillColor=none;" vertex="1" parent="1">
          <mxGeometry x="243.5" y="697" width="106" height="26" as="geometry" />
        </mxCell>
        <mxCell id="kb8mqb-I2BFPK8dXKE93-92" value="" style="endArrow=open;endFill=1;endSize=12;html=1;rounded=0;" edge="1" parent="1">
          <mxGeometry width="160" relative="1" as="geometry">
            <mxPoint x="442" y="752" as="sourcePoint" />
            <mxPoint x="593" y="752" as="targetPoint" />
          </mxGeometry>
        </mxCell>
        <mxCell id="kb8mqb-I2BFPK8dXKE93-93" value="Create Account" style="text;html=1;align=center;verticalAlign=middle;resizable=0;points=[];autosize=1;strokeColor=none;fillColor=none;" vertex="1" parent="1">
          <mxGeometry x="473" y="728" width="100" height="26" as="geometry" />
        </mxCell>
      </root>
    </mxGraphModel>
  </diagram>
</mxfile>
